<svg id="Layer_1" data-name="Layer 1" xmlns="http://www.w3.org/2000/svg" viewBox="0 0 162.08 33.33"><defs><style>.cls-1{fill:#dc2232;}.cls-2{fill:#db2432;}</style></defs><title>a360</title><path class="cls-1" d="M72.2,0h7.3V6.7H72.1V.2C72.1.1,72.1,0,72.2,0Z" transform="translate(0.07)"/><path class="cls-1" d="M115.2,15.6a5.52,5.52,0,0,1,2.1,1.4c1.5,1.7,1.6,5.1,1.4,7.9-.2,3-1.2,5.1-2.9,6.4-3.6,3-11.1,2.1-15.1.2.9-2,1.8-4.1,2.8-6.1,1.6.6,5,2,6.8.7,1.2-.9,1.5-4.9.1-5.9-1.1-.8-2.5-.5-4.3-.6-.1-1.9-.1-4.1,0-6,1.7,0,3.6,0,4.2-1.1a3.81,3.81,0,0,0,.1-3.3c-1-1.8-5-.7-6.5-.1l-2.7-6.3c3.8-1.7,12-2.4,15,.6A7.75,7.75,0,0,1,118,8.9C118,11.8,117.4,14.7,115.2,15.6Z" transform="translate(0.07)"/><path class="cls-1" d="M151,1.5c4.4-.3,7.6,1.3,9.2,4,1.3,2.3,1.8,5.9,1.8,9.6,0,3.4.1,7.7-.6,10.8-1,4.5-4,7.4-9.7,7.3-5.5-.1-8.5-2.8-9.5-7.5a46.89,46.89,0,0,1-.5-10.7c.3-5.8.8-10.2,4.7-12.3A10,10,0,0,1,151,1.5ZM149.3,13c0,1-.1,3-.1,4.7s0,2.9.1,4.7c.1,1.6.4,3.1,1.2,3.6a2.72,2.72,0,0,0,2.5,0c1.6-1,1.3-6,1.3-8.7s.3-7.7-1.3-8.7a3.3,3.3,0,0,0-1.6-.2C149.5,8.8,149.4,11,149.3,13Z" transform="translate(0.07)"/><path class="cls-1" d="M137.4,1.7V8.4c-4.9-.1-10-.3-9.7,4.8.2.1.3-.3.6-.5,2.3-2,7.8-1.6,9.8.3s2.3,5.9,2.2,9.9c-.1,3.3-1,6.4-2.7,8-1.9,1.8-5,2.4-8.3,2.2-6.7-.5-8.7-5.3-9-12.2-.3-7.1.1-13.9,4.2-16.9C127.3,1.9,132,1.6,137.4,1.7Zm-9.5,20.1c0,1.9,0,3.9,1.1,4.6a2.75,2.75,0,0,0,2.5.1c1.2-.6,1.2-2.5,1.2-4.5,0-2.5,0-4.9-2.3-4.8S127.9,19.2,127.9,21.8Z" transform="translate(0.07)"/><path class="cls-1" d="M66.2,2h.1V8.1a28.08,28.08,0,0,1,4.1.1v6.5H66.3v8.4a6.86,6.86,0,0,0,.2,2.6c.7,1,2.4.4,3.9.6V33c-3.7.2-7.7.3-9.7-1.5C59,30,58.9,27.1,58.9,24V14.8h-3V8.3h3.4c.4-1.5.7-3.1,1-4.6C62.3,3,64.3,2.6,66.2,2Z" transform="translate(0.07)"/><path class="cls-2" d="M19.2,25.7v7.2c-2.9.2-6.4.4-6.8-2.1-.4.3-.8.9-1.3,1.3-1.5,1.1-4.1,1.3-6,1A5.44,5.44,0,0,1,.9,30.2c-1.6-3.1-1.2-9.1,1-11.3,1.8-1.8,5.1-2.2,8.9-2.1.4-2.3-1.9-2-3.7-1.8a17.33,17.33,0,0,0-3.2.7c-.8-2.2-1.4-4.5-2.1-6.8,4-1.1,11.7-2.1,14.5.7,2.3,2.2,1.7,7.6,1.7,12.3C18,23.3,17.4,26.1,19.2,25.7ZM7.8,21.9c-.9.6-1.2,3.7-.4,4.6a2.07,2.07,0,0,0,2.3.4c1.5-.6,1.1-3.3,1.1-5.4C9.6,21.5,8.5,21.4,7.8,21.9Z" transform="translate(0.07)"/><path class="cls-1" d="M55.4,8.9c-.8,2.1-1.7,4.2-2.6,6.2-.9-.5-5.6-1.7-5.6.5,0,1.3,2.3,2,3.3,2.5,2.8,1.4,5.4,3.5,5.3,7.6A8.26,8.26,0,0,1,54,30.8c-2.9,3-10.3,2.8-14.6,1,.8-1.9,1.6-3.8,2.3-5.8a20.89,20.89,0,0,0,3.6.9c1.6.2,3.5.2,3.3-1.5-.1-1-1.4-1.6-2.4-2-2.9-1.4-6-2.9-6.2-7C39.6,11,42.6,8,47.9,7.8A15.86,15.86,0,0,1,55.4,8.9Z" transform="translate(0.07)"/><path class="cls-1" d="M100,32.8H92.6V18.7c0-1.3.1-3.4-.8-3.8a2.6,2.6,0,0,0-2.5.5c-.6.8-.5,2.5-.5,4V32.8H81.5V8.5c2-.1,4-.3,6.1-.4a14.62,14.62,0,0,0,.5,2c.9-1.5,2.8-2.3,5.3-2.5,2.8-.2,4.8.7,5.8,2.6,1.3,2.4.9,7,.9,10.8C100,25.3,100,29.3,100,32.8Z" transform="translate(0.07)"/><path class="cls-1" d="M20.3,8.1h7.3V22.5c0,1.4-.1,3.5.8,4a2.79,2.79,0,0,0,2.2-.2c.8-.6.7-2.6.7-4.1,0-4.7,0-9.7.1-14h7.3c.1,8.1,0,16.3.1,24.5-2.1.1-4,.3-6.1.4-.2-.7-.3-1.4-.5-2.1-.8,1.8-3.7,2.5-6.4,2.3a5.09,5.09,0,0,1-4.5-2.5c-1.4-2.4-.9-6.8-.9-10.7V8.5C20.3,8.2,20.2,8.1,20.3,8.1Z" transform="translate(0.07)"/><path class="cls-1" d="M72.2,8.1h7.3V32.8H72.1V8.2A.1.1,0,0,1,72.2,8.1Z" transform="translate(0.07)"/></svg>