<?xml version="1.0" encoding="utf-8"?>
<!-- Generator: Adobe Illustrator 18.1.1, SVG Export Plug-In . SVG Version: 6.00 Build 0)  -->
<svg version="1.1" id="Layer_1" xmlns="http://www.w3.org/2000/svg" xmlns:xlink="http://www.w3.org/1999/xlink" x="0px" y="0px"
	 viewBox="0 0 600 200" enable-background="new 0 0 600 200" xml:space="preserve">
<g>
	<g>
		<g>
			<g>
				<path fill="#FFFFFF" d="M590,124.8l-9.8,10.9c-3.9-3.2-8.6-6.7-11.2-8.3v-0.2c1-1,1.2-2,1.2-4.3V84.7l-10-6.8
					c-0.9,0.6-1.9,1.5-2.3,1.8v42.5c0,2.9,0.9,4.2,2.9,4.9v0.2c-2.7,2.6-6.4,6.6-8,8.5c-2.8-2.5-7.3-5.9-9.6-7.5V128
					c1.7-1.1,2.3-2.6,2.3-5.5V83.2l-2.5-2.3c-0.5-0.4-0.9-0.6-1.3-0.6c-0.5,0-1.1,0.3-1.7,1l-1.7,1.8l-1-0.9l10.7-11.9l9.9,7.6
					l9.8-7.7c4.2,3.1,12.5,8,16.9,10.2v0.2c-1.4,1-2,2.4-2,4.9v38.2l2.4,1.7c0.5,0.4,1,0.6,1.5,0.6c0.6,0,1.1-0.3,1.7-1l0.9-1.1
					L590,124.8z"/>
				<path fill="#FFFFFF" d="M494.3,123.8l-10.9,12c-4-3-9-6.5-11.8-8.4v-0.1c1.9-1.3,1.9-2.3,1.9-4.4V85.7l-9.5-6.8l-2.9,2.6v41.7
					c0,1.6,0.9,2.9,2.8,3.7v0.2l-8,8.6c-3-2.5-7.2-5.8-9.7-7.5V128c2-1.5,2.6-2.5,2.6-4.6v-38l-10-7l-2.6,2.3v42.2
					c0,1.9,1.1,3.4,3,4.2v0.2l-8.1,8.6c-2.6-2.1-6.5-5.1-9.6-7.4v-0.2c1.8-1.2,2.4-3,2.4-5.4V82.4l-2.2-1.7c-0.5-0.4-1-0.5-1.4-0.5
					c-0.6,0-1.2,0.4-1.7,1l-2,2.1l-1-1.1l10.8-12l9.7,8.3l10.2-8.3c4.2,3.4,10.2,7.8,13.7,10.1L471,70.2c4,3.2,12.2,8.7,16.8,11.6
					v0.3c-1.8,1.3-2,2.7-2,5.2v36l2.3,1.6c0.7,0.5,1.2,0.7,1.7,0.7c0.6,0,1.1-0.4,1.8-1.2l1.5-1.5L494.3,123.8z"/>
				<path fill="#FFFFFF" d="M334.4,123.5l-10.7,12.3c-4.6-3.2-11.5-7.5-15.8-9.9v-0.2c1-0.8,1.4-1.8,1.4-3.8V79.3h-6.9l2.3-4.4h4.7
					v-8c0-1.8,0-3.2-1.4-4.3v-0.2c6.1-0.6,9.3-8,15.9-8.1l0.2,0.5c-1.6,1.1-2.7,3.4-2.7,8v11.8h10.7l-2.7,5.7
					c-0.7-0.6-1.6-0.9-3.1-0.9h-5v42.1l6,3.2c1,0.6,1.8,0.8,2.4,0.8c0.7,0,1.3-0.3,2.1-1.2l1.5-1.7L334.4,123.5z"/>
				<path fill="#FFFFFF" d="M257.2,123.5l-10.7,12.3c-4.6-3.2-11.5-7.5-15.8-9.9v-0.2c1-0.8,1.4-1.8,1.4-3.8V79.3h-6.9l2.3-4.4h4.7
					v-8c0-1.8,0-3.2-1.4-4.3v-0.2c6.1-0.6,9.3-8,15.9-8.1l0.2,0.5c-1.6,1.1-2.7,3.4-2.7,8v11.8H255l-2.7,5.7
					c-0.7-0.6-1.6-0.9-3.1-0.9h-5v42.1l6,3.2c1,0.6,1.8,0.8,2.4,0.8c0.7,0,1.3-0.3,2.1-1.2l1.5-1.7L257.2,123.5z"/>
				<path fill="#FFFFFF" d="M214,110.4c0,3.1-1.1,6.1-2,7.1h-0.4c0.1-1,0.2-2.5,0.2-3.4c0-6.5-1.5-13-11.1-18c-3.9-2-7.2-3.8-9.7-5
					L187,99c-3.5,6.7-8,9.6-13,9.6c-1.7,0-3-0.7-3.9-1.2l2.8-5c0.9,1.1,2,1.8,3.5,1.8c3.8,0,7.3-2.1,9.6-6.3l4-7.4
					c-2.5-1.2-4.6-2.3-9-4.4c-7.3-3.6-11.4-7.3-11.4-13.3c0-2,0.7-4.6,1.3-5.5h0.3c0.4,6,1.8,9.7,11,14.5
					c7.2,3.8,14.1,7.3,21.1,10.8C211.3,96.8,214,102.9,214,110.4z"/>
				<path fill="#FFFFFF" d="M539.4,123.7l-10.5,12l-10.4-7.2l-11.3,7.2c-6.5-3-12.2-10.6-12.2-18.2c0-12,11.7-16.7,20.4-20.9
					l3.5-1.7V84.7l-14-7.1l-1,1c-0.3,1.4-0.5,3-0.5,5.5c0,3.2,1.6,6.4,3.4,7.4l-0.7,0.8c-4.9-0.3-8.3-5.2-9-10.2
					c4.3-2.9,11.5-8.7,15.1-12l21.1,9.7V80c-1.4,1.3-2.1,3-2.1,5.7v37.8l2,1.4c0.7,0.5,1.2,0.8,1.7,0.8c0.6,0,1.2-0.5,1.8-1.2
					l1.5-1.8L539.4,123.7z M518.9,126.3V96.6l-3.7,1.9c-5,2.6-8.1,8.1-8.1,16.2c0,6.7,4.4,11.8,8.2,14L518.9,126.3z"/>
				<path fill="#FFFFFF" d="M416.9,70c0,0.9-0.9,3.2-1.4,3.9l-14.3,22.7l14.3,7.1v0.2c-1.3,0.8-1.9,1.9-1.9,4.3v17.5
					c-6.5,1.8-14.8,6.3-19.5,10c-2.2-2-4.6-3.7-8.3-3.7c-5.4,0-8.6,2.4-8.6,5.8c0,4.4,4.6,6.1,7.7,6.1l-1.4,1.7
					c-3.8-0.5-8.2-3.1-8.2-8.6c0-4.4,2.8-7.5,4.5-10.2l12.6-19.6l-15.9-8.3v-0.2c1.6-1.1,1.8-2.6,1.8-5.2v-12
					c6.7-1.8,14.8-7.1,19.3-11.3c3.7,3.1,7,5.4,10.5,5.4c4.5,0,7.1-2.9,7.1-5.1c0-2-0.7-2.8-1.6-3.6l1.9-1.3
					C416.2,66.2,416.9,67.4,416.9,70z M408.7,81.9c-1,0.5-4.7,1.5-7.4,1.5c-3.5,0-7.5-1.4-11.4-5.6l-0.1,0.1v15.1l8.9,4.6
					L408.7,81.9z M402.4,127.3V110l-7.6-3.9l-12.6,19.6c2.3-1.3,5.3-2.5,10.6-2.5c2.6,0,5.8,1.2,9.4,4H402.4z"/>
				<path fill="#FFFFFF" d="M374.3,87.6l-23.6,16.3v15.5l10.5,5.6c0.8,0.4,1.4,0.6,2,0.6c0.8,0,1.4-0.5,2.3-1.4l1.7-1.9l1,0.9
					L357,135.7c-7.7-4.9-15.2-9.2-20.8-12v-0.2c2-0.9,2.2-2.6,2.2-5V83.3c7.6-2.6,16.3-8,21.9-13.1
					C363.4,74.7,370.4,83.3,374.3,87.6z M362.4,93.9c-3-3.9-8.8-11.1-11.4-15.2l-0.3,0.2V102L362.4,93.9z"/>
				<path fill="#FFFFFF" d="M303.6,123.7l-10.5,12l-10.4-7.2l-11.3,7.2c-6.5-3-12.2-10.6-12.2-18.2c0-12,11.7-16.7,20.4-20.9L283,95
					V84.7l-14-7.1l-1.1,1c-0.3,1.4-0.5,3-0.5,5.5c0,3.2,1.6,6.4,3.5,7.4l-0.7,0.8c-4.9-0.3-8.3-5.2-9-10.2c4.3-2.9,11.5-8.7,15.1-12
					l21.1,9.7V80c-1.4,1.3-2.1,3-2.1,5.7v37.8l1.9,1.4c0.7,0.5,1.3,0.8,1.7,0.8c0.6,0,1.2-0.5,1.8-1.2l1.5-1.8L303.6,123.7z
					 M283,126.3V96.6l-3.7,1.9c-5,2.6-8.1,8.1-8.1,16.2c0,6.7,4.3,11.8,8.2,14L283,126.3z"/>
				<path fill="#FFFFFF" d="M225.3,101.1c0,14.4-11,23-26.4,34.6c-4.3-3.8-10.1-7.8-15.8-7.8c-10.3,0-17.8,4.2-17.8,10.1
					c0,5.8,5.2,8.9,10.3,8.9c3.6,0,5.9-1.3,7.2-1.9l-0.6,2.4c-0.8,0.4-3.1,1.3-7.1,1.3c-7.8,0-13.6-4.5-13.6-13
					c0-13.9,12.6-19.6,24.8-19.6c10.4,0,18.3,5.7,22.7,9.5c4.3-4,7.8-9.4,7.8-16.2c0-8.3-3.8-15.7-10.9-19.3
					c-7-3.5-13.6-6.7-20.4-10c-8.3-4-12.5-7.9-12.5-17c0-11.2,9-22,25.3-22c6.7,0,12.9,1.9,17,4.6l2-3.1l1.4,0.8
					c-5.5,8.4-13.7,22.1-17.7,29.8c2.9,1.4,5.8,2.8,10.3,5.1C221.3,83.8,225.3,90.7,225.3,101.1z M209.5,55.4
					c-3.3-4.7-9.6-7.5-15.6-7.5c-10.2,0-15,3-15,8.6c0,4.3,3.7,7.6,9.2,10.5c4.9,2.5,7.6,3.9,11.3,5.8
					C201.8,68.5,206.9,59.5,209.5,55.4z"/>
				<path fill="#FFFFFF" d="M300,125.4"/>
			</g>
		</g>
	</g>
	<g>
		<path fill="#BE1E2D" d="M17.4,136.9V73.7l5.7-0.6l1.5,10.3c2.9-7.9,10.1-11.6,18.7-11.6c12.3,0,14.6,6.7,16.1,12.4
			c2.7-7.7,9.9-12.4,19.5-12.4c14.1,0,17.6,7.9,17.6,23.7v41.4h-7.9V96.7c0-11.6-1.7-17.4-11.7-17.4C65.4,79.3,61,85.8,61,97.6v39.3
			h-7.9V96.7c0-11.6-1.9-17.4-11.8-17.4c-11.5,0-16,6.5-16,18.3v39.3H17.4z"/>
		<path fill="#BE1E2D" d="M104.6,73.2h8l15.8,51.8l15.8-51.8h7.9l-21.4,68.6c-2.7,8.3-6.6,14.4-15.2,14.4c-3.8,0-6.7-0.3-11-1.3
			l1.6-7.2c3.1,0.7,6.3,1,8.9,1c4.5,0,6.7-2.1,9.5-11.5L104.6,73.2z"/>
	</g>
</g>
</svg>
