<?xml version="1.0" encoding="utf-8"?>
<!-- Generator: Adobe Illustrator 18.1.1, SVG Export Plug-In . SVG Version: 6.00 Build 0)  -->
<svg version="1.1" id="Layer_1" xmlns="http://www.w3.org/2000/svg" xmlns:xlink="http://www.w3.org/1999/xlink" x="0px" y="0px"
	 viewBox="0 0 600 200" enable-background="new 0 0 600 200" xml:space="preserve">
<g>
	<g>
		<g>
			<g>
				<path fill="#FFFFFF" d="M570.6,97.2l-9.4,10.4c-3.7-3-8.2-6.3-10.7-7.9v-0.2c1-0.9,1.1-1.9,1.1-4.1V59.1l-9.6-6.5
					c-0.8,0.6-1.8,1.4-2.2,1.7v40.4c0,2.7,0.9,4,2.8,4.6v0.2c-2.6,2.5-6.1,6.3-7.6,8.1c-2.7-2.4-6.9-5.6-9.1-7.1v-0.2
					c1.7-1,2.2-2.5,2.2-5.2V57.6l-2.4-2.2c-0.4-0.4-0.8-0.6-1.2-0.6c-0.5,0-1,0.3-1.6,0.9l-1.7,1.7l-1-0.9l10.2-11.3l9.5,7.3
					l9.3-7.4c4,3,11.9,7.6,16.1,9.7v0.2c-1.3,0.9-1.9,2.3-1.9,4.7v36.4l2.3,1.6c0.5,0.4,1,0.6,1.4,0.6c0.5,0,1.1-0.3,1.6-0.9l0.9-1
					L570.6,97.2z"/>
				<path fill="#FFFFFF" d="M479.5,96.3l-10.4,11.5c-3.8-2.9-8.6-6.2-11.2-8v-0.1c1.8-1.2,1.8-2.2,1.8-4.2V60l-9-6.5l-2.8,2.5v39.7
					c0,1.5,0.9,2.7,2.6,3.5v0.2l-7.6,8.1c-2.9-2.4-6.8-5.5-9.2-7.1v-0.2c1.9-1.5,2.4-2.4,2.4-4.4V59.6l-9.5-6.7l-2.5,2.1v40.2
					c0,1.8,1,3.3,2.9,4v0.2l-7.7,8.1c-2.5-2-6.2-4.9-9.1-7v-0.2c1.7-1.1,2.3-2.9,2.3-5.1V56.8l-2.1-1.6c-0.5-0.3-0.9-0.5-1.3-0.5
					c-0.6,0-1.1,0.3-1.6,0.9l-1.9,2l-1-1l10.3-11.4l9.2,7.9l9.7-7.9c4,3.2,9.7,7.4,13.1,9.6l10.3-9.6c3.8,3.1,11.6,8.3,16,11.1v0.2
					c-1.7,1.2-1.9,2.6-1.9,5v34.3l2.2,1.5c0.7,0.5,1.2,0.7,1.6,0.7c0.5,0,1-0.4,1.8-1.1l1.4-1.5L479.5,96.3z"/>
				<path fill="#FFFFFF" d="M327.1,96l-10.2,11.7c-4.4-3-11-7.1-15.1-9.4V98c0.9-0.8,1.3-1.7,1.3-3.6V53.8h-6.6l2.2-4.2h4.5v-7.6
					c0-1.7,0-3.1-1.3-4.1v-0.2c5.8-0.6,8.9-7.6,15.2-7.7l0.2,0.5c-1.5,1-2.5,3.3-2.5,7.6v11.2H325l-2.5,5.4c-0.7-0.6-1.5-0.9-3-0.9
					h-4.7v40.1l5.7,3.1c1,0.5,1.7,0.8,2.3,0.8c0.7,0,1.3-0.3,2-1.1l1.4-1.6L327.1,96z"/>
				<path fill="#FFFFFF" d="M253.5,96l-10.2,11.7c-4.4-3-11-7.1-15.1-9.4V98c0.9-0.8,1.3-1.7,1.3-3.6V53.8H223l2.2-4.2h4.5v-7.6
					c0-1.7,0-3.1-1.3-4.1v-0.2c5.8-0.6,8.9-7.6,15.2-7.7l0.2,0.5c-1.5,1-2.5,3.3-2.5,7.6v11.2h10.2l-2.5,5.4c-0.7-0.6-1.5-0.9-3-0.9
					h-4.7v40.1l5.7,3.1c1,0.5,1.7,0.8,2.3,0.8c0.7,0,1.3-0.3,2-1.1l1.4-1.6L253.5,96z"/>
				<path fill="#FFFFFF" d="M212.4,83.5c0,2.9-1.1,5.8-1.9,6.8h-0.3c0.1-0.9,0.2-2.4,0.2-3.3c0-6.2-1.4-12.4-10.6-17.1
					c-3.7-1.9-6.9-3.6-9.2-4.7l-4,7.5c-3.3,6.3-7.6,9.2-12.4,9.2c-1.6,0-2.9-0.7-3.7-1.1l2.7-4.8c0.8,1,1.9,1.7,3.3,1.7
					c3.6,0,6.9-2,9.1-6l3.8-7c-2.3-1.1-4.4-2.1-8.6-4.2c-7-3.4-10.9-6.9-10.9-12.7c0-1.9,0.7-4.4,1.2-5.2h0.3
					c0.3,5.7,1.7,9.3,10.4,13.8c6.9,3.6,13.5,6.9,20.1,10.3C209.8,70.6,212.4,76.4,212.4,83.5z"/>
				<path fill="#FFFFFF" d="M522.4,96.2l-10,11.4l-9.9-6.9l-10.8,6.9c-6.2-2.8-11.7-10.1-11.7-17.3c0-11.4,11.2-15.9,19.5-19.9
					l3.3-1.6v-9.7l-13.3-6.8l-1,0.9c-0.3,1.4-0.4,2.8-0.4,5.2c0,3.1,1.5,6.1,3.3,7l-0.7,0.8c-4.7-0.3-7.9-5-8.6-9.7
					c4.1-2.7,10.9-8.3,14.4-11.4l20.1,9.3v0.2c-1.3,1.3-2,2.8-2,5.4v36l1.9,1.4c0.7,0.5,1.2,0.8,1.7,0.8c0.6,0,1.2-0.4,1.8-1.1
					l1.4-1.7L522.4,96.2z M502.9,98.7V70.4l-3.5,1.8c-4.7,2.4-7.7,7.7-7.7,15.4c0,6.4,4.1,11.2,7.8,13.4L502.9,98.7z"/>
				<path fill="#FFFFFF" d="M405.7,45c0,0.9-0.9,3.1-1.3,3.7l-13.6,21.6l13.6,6.8v0.2c-1.2,0.8-1.8,1.8-1.8,4.1v16.6
					c-6.2,1.7-14.1,6-18.6,9.5c-2.1-1.9-4.4-3.5-7.9-3.5c-5.1,0-8.2,2.3-8.2,5.6c0,4.2,4.4,5.8,7.4,5.8l-1.3,1.6
					c-3.6-0.5-7.8-2.9-7.8-8.2c0-4.2,2.6-7.2,4.3-9.7l12-18.7l-15.2-7.9v-0.2c1.6-1.1,1.7-2.5,1.7-5V55.9
					c6.4-1.7,14.1-6.8,18.4-10.8c3.5,3,6.7,5.1,10,5.1c4.3,0,6.8-2.7,6.8-4.9c0-1.9-0.6-2.7-1.6-3.4l1.8-1.2
					C405.1,41.4,405.7,42.5,405.7,45z M397.9,56.3c-1,0.5-4.5,1.5-7,1.5c-3.3,0-7.1-1.3-10.9-5.3l-0.1,0.1V67l8.5,4.4L397.9,56.3z
					 M391.8,99.6V83.2l-7.2-3.7l-12,18.7c2.2-1.2,5.1-2.4,10.1-2.4c2.5,0,5.5,1.1,8.9,3.8H391.8z"/>
				<path fill="#FFFFFF" d="M365.1,61.8l-22.5,15.5V92l10,5.3c0.8,0.4,1.4,0.6,1.9,0.6c0.8,0,1.4-0.4,2.2-1.4l1.6-1.8l1,0.9
					l-10.7,12c-7.4-4.6-14.5-8.7-19.8-11.4V96c1.9-0.9,2.1-2.5,2.1-4.8V57.7c7.2-2.5,15.5-7.6,20.9-12.5
					C354.7,49.5,361.3,57.6,365.1,61.8z M353.8,67.8c-2.9-3.7-8.4-10.5-10.9-14.5l-0.3,0.2v22L353.8,67.8z"/>
				<path fill="#FFFFFF" d="M297.7,96.2l-10,11.4l-9.9-6.9l-10.8,6.9c-6.2-2.8-11.7-10.1-11.7-17.3c0-11.4,11.2-15.9,19.5-19.9
					l3.3-1.6v-9.7l-13.3-6.8l-1,0.9c-0.3,1.4-0.4,2.8-0.4,5.2c0,3.1,1.6,6.1,3.3,7l-0.6,0.8c-4.7-0.3-7.9-5-8.6-9.7
					c4.1-2.7,10.9-8.3,14.4-11.4l20.1,9.3v0.2c-1.3,1.3-2,2.8-2,5.4v36l1.9,1.4c0.7,0.5,1.2,0.8,1.7,0.8c0.6,0,1.2-0.4,1.8-1.1
					l1.4-1.7L297.7,96.2z M278.1,98.7V70.4l-3.5,1.8c-4.8,2.4-7.7,7.7-7.7,15.4c0,6.4,4.1,11.2,7.8,13.4L278.1,98.7z"/>
				<path fill="#FFFFFF" d="M223.2,74.7c0,13.7-10.5,21.9-25.2,33c-4.1-3.6-9.6-7.5-15.1-7.5c-9.8,0-16.9,4-16.9,9.6
					c0,5.6,5,8.5,9.8,8.5c3.4,0,5.6-1.2,6.8-1.8l-0.6,2.3c-0.8,0.3-3,1.2-6.8,1.2c-7.5,0-13-4.3-13-12.3c0-13.3,12-18.7,23.6-18.7
					c9.9,0,17.4,5.4,21.7,9.1c4.1-3.9,7.5-9,7.5-15.4c0-7.9-3.6-14.9-10.4-18.3c-6.6-3.3-12.9-6.3-19.5-9.5
					c-7.9-3.8-11.9-7.5-11.9-16.2c0-10.6,8.6-20.9,24.1-20.9c6.4,0,12.3,1.8,16.2,4.4l1.9-2.9l1.3,0.8c-5.2,8-13.1,21.1-16.8,28.4
					c2.8,1.4,5.5,2.7,9.8,4.9C219.3,58.1,223.2,64.7,223.2,74.7z M208.1,31.1c-3.2-4.5-9.1-7.1-14.8-7.1c-9.7,0-14.3,2.9-14.3,8.1
					c0,4.1,3.5,7.3,8.8,10c4.6,2.4,7.3,3.7,10.8,5.6C200.8,43.6,205.6,35,208.1,31.1z"/>
				<path fill="#FFFFFF" d="M294.3,97.8"/>
			</g>
		</g>
	</g>
	<g>
		<path fill="#BE1E2D" d="M25.1,108.8V48.6l5.4-0.6l1.4,9.8c2.8-7.5,9.6-11,17.8-11c11.7,0,13.9,6.4,15.4,11.8
			c2.5-7.3,9.4-11.8,18.6-11.8c13.5,0,16.8,7.5,16.8,22.5v39.4h-7.5V70.4c0-11-1.7-16.6-11.2-16.6c-10.9,0-15.1,6.2-15.1,17.4v37.4
			h-7.5V70.4c0-11-1.8-16.6-11.3-16.6c-10.9,0-15.2,6.2-15.2,17.4v37.4H25.1z"/>
		<path fill="#BE1E2D" d="M108.1,48h7.6l15,49.4l15-49.4h7.5l-20.4,65.4c-2.5,8-6.3,13.7-14.5,13.7c-3.6,0-6.4-0.3-10.5-1.2l1.5-6.8
			c3,0.7,6,1,8.5,1c4.3,0,6.4-2,9.1-10.9L108.1,48z"/>
	</g>
	<g>
		<path fill="#FFFFFF" d="M29,151v-4.3c0-4.5,3.2-5.4,6.4-5.4c0.7,0,1.2,0,1.7,0.1v2.6c-3.8-0.3-4.5,1.4-4.5,3.2v3.8h4.5v2.7h-4.5
			v19.5H29v-19.5h-3.4V151H29z"/>
		<path fill="#FFFFFF" d="M43.9,154.4L43.9,154.4c1.6-3.4,3.4-3.8,7-3.8v3.7c-0.3,0-0.7-0.1-1-0.1s-0.6-0.1-1-0.1c-4,0-5,3-5,6v13.1
			h-3.6V151h3.6V154.4z"/>
		<path fill="#FFFFFF" d="M53.2,162.5c0-6.5,0.7-11.9,8.5-11.9c7.7,0,8.5,5.4,8.5,11.9c0,9.8-3.7,11.2-8.5,11.2
			S53.2,172.3,53.2,162.5z M66.3,160.9c0-6.1-1.9-7.4-4.7-7.4c-2.8,0-4.7,1.3-4.7,7.4c0,7.2,0.9,9.8,4.7,9.8S66.3,168.2,66.3,160.9z
			"/>
		<path fill="#FFFFFF" d="M85.3,173.3v-15.4c0-2.2-0.6-4.3-3.5-4.3c-1.1,0-2.6,0.7-3.1,1.5c-0.7,1.1-0.8,2.4-0.8,3.3v15h-3.6v-17.6
			c0-1.5-0.1-3.1-0.2-4.6h3.8v2.8h0.1c1.1-2.4,3-3.2,5.6-3.2c2,0,4.4,0.8,5.2,2.9c1.2-2.4,3.3-2.9,5.3-2.9c2.3,0,6.1,0.5,6.1,5.8
			v16.9h-3.6v-15.4c0-2.2-0.6-4.3-3.5-4.3c-1.4,0-1.8,0-2.7,0.8c-1.1,0.9-1.2,3.1-1.2,3.9v15H85.3z"/>
		<path fill="#FFFFFF" d="M120.7,141.5h5.2l10.4,31.8h-4.5l-2.3-7.6h-12.3l-2.4,7.6h-4.1L120.7,141.5z M123.2,145.2L123.2,145.2
			l-5.1,17h10.2L123.2,145.2z"/>
		<path fill="#FFFFFF" d="M150.5,151h3.6v17.6c0,1.5,0.1,3.1,0.2,4.6h-3.8v-2.7h-0.1c-1.2,2-3.3,3.1-5.6,3.1c-3.9,0-6-1.9-6-5.7v-17
			h3.6v15.4c0,2.7,1.2,4.5,3.8,4.5c1.9,0,4.4-1.5,4.4-5.2V151z"/>
		<path fill="#FFFFFF" d="M165.7,173.7c-4.8,0-7.8-2.1-7.7-7.2h4.1c0,1.3,0,4.3,3.7,4.3c2.2,0,3.8-1.1,3.8-3.4
			c0-4-11.1-4.1-11.1-10.7c0-2.3,1.4-6.1,7.7-6.1c4,0,7.4,1.9,7.1,6.3h-4c0-2.3-1.2-3.6-3.5-3.6c-1.9,0-3.4,1.1-3.4,3
			c0,3.9,11.1,3.8,11.1,10.6C173.5,171.8,170.1,173.7,165.7,173.7z"/>
		<path fill="#FFFFFF" d="M177.7,151v-4.3l3.6-1.6v5.9h4.8v2.7h-4.8v13.6c0,1.4,0,3.2,3.3,3.2c0.3,0,0.8-0.1,1.6-0.2v2.8
			c-1.2,0.1-2.4,0.4-3.6,0.4c-3.4,0-5-1.4-5-4v-15.8H174V151H177.7z"/>
		<path fill="#FFFFFF" d="M188.1,141.5h4.1v3.9h-4.1V141.5z M192,173.3h-3.6V151h3.6V173.3z"/>
		<path fill="#FFFFFF" d="M208.1,173.3v-15.4c0-2.4-0.8-4.3-3.9-4.3c-4,0-4.5,3.5-4.5,6.6v13.2H196v-17.6c0-1.5-0.1-3.1-0.2-4.6h3.8
			v2.9h0.2c1.4-2.5,3.1-3.3,6-3.3c4.8,0,6,2.9,6,7.3v15.4H208.1z"/>
		<path fill="#FFFFFF" d="M232.5,141.5h5.2l10.4,31.8h-4.5l-2.3-7.6h-12.3l-2.4,7.6h-4.1L232.5,141.5z M235,145.2L235,145.2l-5.1,17
			h10.2L235,145.2z"/>
		<path fill="#FFFFFF" d="M261.4,173.3v-15.4c0-2.2-0.6-4.3-3.5-4.3c-1.1,0-2.6,0.7-3.1,1.5c-0.7,1.1-0.8,2.4-0.8,3.3v15h-3.6v-17.6
			c0-1.5-0.1-3.1-0.2-4.6h3.8v2.8h0.1c1.1-2.4,3-3.2,5.6-3.2c2,0,4.4,0.8,5.2,2.9c1.2-2.4,3.3-2.9,5.3-2.9c2.3,0,6.1,0.5,6.1,5.8
			v16.9h-3.6v-15.4c0-2.2-0.6-4.3-3.5-4.3c-1.4,0-1.8,0-2.7,0.8c-1.1,0.9-1.2,3.1-1.2,3.9v15H261.4z"/>
		<path fill="#FFFFFF" d="M284.3,163.3c0,6.2,1.7,7.5,4.5,7.5c2.5,0,3.7-2,3.9-4.2h4c0,4.9-3.1,7.2-7.8,7.2c-4.7,0-8.5-1.4-8.5-11.2
			c0-6.5,0.7-11.9,8.5-11.9c6.3,0,7.9,3.5,7.9,10.8v1.9H284.3z M293,160.6c0-6.5-1.8-7.3-4.5-7.3c-2.3,0-4.2,1.1-4.2,7.3H293z"/>
		<path fill="#FFFFFF" d="M305.1,154.4L305.1,154.4c1.6-3.4,3.4-3.8,7-3.8v3.7c-0.3,0-0.7-0.1-1-0.1s-0.6-0.1-1-0.1c-4,0-5,3-5,6
			v13.1h-3.6V151h3.6V154.4z"/>
		<path fill="#FFFFFF" d="M314.7,141.5h4.1v3.9h-4.1V141.5z M318.5,173.3h-3.6V151h3.6V173.3z"/>
		<path fill="#FFFFFF" d="M334.2,158.2c0.1-3.7-1.7-4.6-3.1-4.6c-2.8,0-4.7,1.3-4.7,7.4c0,7.2,0.9,9.8,4.7,9.8
			c0.8,0,3.4-0.9,3.2-4.9h3.8c0.1,6.3-4.5,7.8-7,7.8c-4.7,0-8.5-1.4-8.5-11.2c0-6.5,0.8-11.9,8.5-11.9c4.5,0,7.1,2.6,6.8,7.6H334.2z
			"/>
		<path fill="#FFFFFF" d="M354.6,170.1L354.6,170.1c-1.2,2.6-2.9,3.7-5.7,3.7c-4.7,0-6.1-3-6.1-7.3c0-6.7,6.6-7.1,11.7-6.9
			c0.1-3,0.1-6.2-3.7-6.2c-2.4,0-3.7,1.6-3.5,4h-3.9c0.2-5,2.8-6.7,7.5-6.7c5.7,0,7.2,3,7.2,6.7V168c0,1.8,0.2,3.6,0.4,5.3h-4V170.1
			z M346.5,166.7c0,2.2,1.1,4.1,3.5,4.1c2.2,0,4.9-1.4,4.6-8.6C351.1,162.3,346.5,162,346.5,166.7z"/>
		<path fill="#FFFFFF" d="M375.8,173.3v-15.4c0-2.4-0.8-4.3-3.9-4.3c-4,0-4.5,3.5-4.5,6.6v13.2h-3.6v-17.6c0-1.5-0.1-3.1-0.2-4.6
			h3.8v2.9h0.2c1.4-2.5,3.1-3.3,6-3.3c4.8,0,6,2.9,6,7.3v15.4H375.8z"/>
		<path fill="#FFFFFF" d="M383.6,159.6h9.7v3.4h-9.7V159.6z"/>
		<path fill="#FFFFFF" d="M401.1,163.8v0.9c0,4.3,2.7,5.7,5.3,5.7c3.2,0,5.7-1.4,5.7-5.2c0-7.1-14.3-6.3-14.3-15.8
			c0-5.6,4-8.6,9.3-8.6c5.8,0,9.1,2.8,8.8,9.3h-4.2c0-3.5-1.1-5.8-4.9-5.8c-2.4,0-4.9,1.2-4.9,4.7c0,7,14.3,6,14.3,16.1
			c0,6.7-4.6,8.9-9.9,8.9c-9.4,0.1-9.4-7.1-9.3-10.1H401.1z"/>
		<path fill="#FFFFFF" d="M421,151v-4.3l3.6-1.6v5.9h4.8v2.7h-4.8v13.6c0,1.4,0,3.2,3.3,3.2c0.3,0,0.8-0.1,1.6-0.2v2.8
			c-1.2,0.1-2.4,0.4-3.6,0.4c-3.4,0-5-1.4-5-4v-15.8h-3.7V151H421z"/>
		<path fill="#FFFFFF" d="M443.9,170.1L443.9,170.1c-1.2,2.6-2.9,3.7-5.7,3.7c-4.7,0-6.1-3-6.1-7.3c0-6.7,6.6-7.1,11.7-6.9
			c0.1-3,0.1-6.2-3.7-6.2c-2.4,0-3.7,1.6-3.5,4h-3.9c0.2-5,2.8-6.7,7.5-6.7c5.7,0,7.2,3,7.2,6.7V168c0,1.8,0.2,3.6,0.4,5.3h-4V170.1
			z M435.7,166.7c0,2.2,1.1,4.1,3.5,4.1c2.2,0,4.9-1.4,4.6-8.6C440.4,162.3,435.7,162,435.7,166.7z"/>
		<path fill="#FFFFFF" d="M453.4,151v-4.3l3.6-1.6v5.9h4.8v2.7H457v13.6c0,1.4,0,3.2,3.3,3.2c0.3,0,0.8-0.1,1.6-0.2v2.8
			c-1.2,0.1-2.4,0.4-3.6,0.4c-3.4,0-5-1.4-5-4v-15.8h-3.7V151H453.4z"/>
		<path fill="#FFFFFF" d="M467.7,163.3c0,6.2,1.7,7.5,4.5,7.5c2.5,0,3.7-2,3.9-4.2h4c0,4.9-3.1,7.2-7.8,7.2c-4.7,0-8.5-1.4-8.5-11.2
			c0-6.5,0.7-11.9,8.5-11.9c6.3,0,7.9,3.5,7.9,10.8v1.9H467.7z M476.4,160.6c0-6.5-1.8-7.3-4.5-7.3c-2.3,0-4.2,1.1-4.2,7.3H476.4z"
			/>
		<path fill="#FFFFFF" d="M491.3,173.7c-4.8,0-7.8-2.1-7.7-7.2h4.1c0,1.3,0,4.3,3.7,4.3c2.2,0,3.8-1.1,3.8-3.4
			c0-4-11.1-4.1-11.1-10.7c0-2.3,1.4-6.1,7.7-6.1c4,0,7.4,1.9,7.1,6.3h-4c0-2.3-1.2-3.6-3.5-3.6c-1.9,0-3.4,1.1-3.4,3
			c0,3.9,11.1,3.8,11.1,10.6C499.1,171.8,495.7,173.7,491.3,173.7z"/>
		<path fill="#FFFFFF" d="M513.8,173.3v-15.4c0-2.2-0.6-4.3-3.5-4.3c-1.1,0-2.6,0.7-3.1,1.5c-0.7,1.1-0.8,2.4-0.8,3.3v15h-3.6v-17.6
			c0-1.5-0.1-3.1-0.2-4.6h3.8v2.8h0.1c1.1-2.4,3-3.2,5.6-3.2c2,0,4.4,0.8,5.2,2.9c1.2-2.4,3.3-2.9,5.3-2.9c2.3,0,6.1,0.5,6.1,5.8
			v16.9h-3.6v-15.4c0-2.2-0.6-4.3-3.5-4.3c-1.4,0-1.8,0-2.7,0.8c-1.1,0.9-1.2,3.1-1.2,3.9v15H513.8z"/>
		<path fill="#FFFFFF" d="M545.3,170.1L545.3,170.1c-1.2,2.6-2.9,3.7-5.7,3.7c-4.7,0-6.1-3-6.1-7.3c0-6.7,6.6-7.1,11.7-6.9
			c0.1-3,0.1-6.2-3.7-6.2c-2.4,0-3.7,1.6-3.5,4H534c0.2-5,2.8-6.7,7.5-6.7c5.7,0,7.2,3,7.2,6.7V168c0,1.8,0.2,3.6,0.4,5.3h-4V170.1z
			 M537.1,166.7c0,2.2,1.1,4.1,3.5,4.1c2.2,0,4.9-1.4,4.6-8.6C541.8,162.3,537.1,162,537.1,166.7z"/>
		<path fill="#FFFFFF" d="M566.5,173.3v-15.4c0-2.4-0.8-4.3-3.9-4.3c-4,0-4.5,3.5-4.5,6.6v13.2h-3.6v-17.6c0-1.5-0.1-3.1-0.2-4.6
			h3.8v2.9h0.2c1.4-2.5,3.1-3.3,6-3.3c4.8,0,6,2.9,6,7.3v15.4H566.5z"/>
	</g>
</g>
</svg>
