<?xml version="1.0" encoding="UTF-8" standalone="no"?>
<!-- Generator: Adobe Illustrator 18.1.1, SVG Export Plug-In . SVG Version: 6.00 Build 0)  -->
<svg id="Layer_1" xmlns:rdf="http://www.w3.org/1999/02/22-rdf-syntax-ns#" xmlns="http://www.w3.org/2000/svg" enable-background="new 0 0 600 200" xml:space="preserve" viewBox="0 0 124.48375 25.000109" height="25" width="124.48" version="1.1" y="0px" x="0px" xmlns:cc="http://creativecommons.org/ns#" xmlns:dc="http://purl.org/dc/elements/1.1/"><metadata id="metadata3685"><rdf:RDF><cc:Work rdf:about=""><dc:format>image/svg+xml</dc:format><dc:type rdf:resource="http://purl.org/dc/dcmitype/StillImage"/><dc:title/></cc:Work></rdf:RDF></metadata><g id="g3645" transform="matrix(.21533 0 0 .21533 -3.1654 -8.7425)"><g id="g3647"><g id="g3649"><g id="g3651" fill="#231f20"><path id="path3653" d="m592.8 125-9.9 11c-3.9-3.2-8.6-6.7-11.3-8.4v-0.2c1-1 1.2-2 1.2-4.3v-38.5l-10.1-6.9c-0.9 0.6-2 1.5-2.3 1.8v42.9c0 2.9 0.9 4.2 2.9 4.9v0.2c-2.7 2.6-6.5 6.7-8 8.5-2.8-2.5-7.3-5.9-9.7-7.6v-0.3c1.8-1.1 2.3-2.7 2.3-5.5v-39.6l-2.5-2.3c-0.5-0.4-0.9-0.6-1.3-0.6-0.5 0-1.1 0.3-1.7 1l-1.8 1.8-1.1-1 10.8-12 10 7.7 9.9-7.8c4.2 3.1 12.6 8.1 17 10.3v0.2c-1.4 1-2 2.4-2 4.9v38.5l2.5 1.7c0.5 0.4 1 0.6 1.5 0.6 0.6 0 1.1-0.3 1.7-1l0.9-1.1 1 1.1z"/><path id="path3655" d="m496.2 124.1-11 12.1c-4-3-9.1-6.6-11.9-8.5v-0.1c1.9-1.3 1.9-2.3 1.9-4.4v-37.7l-9.6-6.8-2.9 2.6v42.1c0 1.6 0.9 2.9 2.8 3.7v0.3l-8 8.6c-3-2.5-7.2-5.8-9.8-7.6v-0.3c2-1.6 2.6-2.5 2.6-4.7v-38.2l-10-7.1-2.7 2.3v42.6c0 1.9 1.1 3.5 3 4.2v0.3l-8.1 8.6c-2.6-2.1-6.6-5.2-9.7-7.4v-0.2c1.9-1.2 2.4-3.1 2.4-5.4v-40.9l-2.2-1.7c-0.5-0.4-1-0.5-1.4-0.5-0.6 0-1.2 0.4-1.7 1l-2 2.2-1-1.1 10.9-12.1 9.8 8.4 10.3-8.4c4.3 3.4 10.3 7.8 13.9 10.2l10.9-10.2c4.1 3.3 12.3 8.8 17 11.8v0.2c-1.8 1.3-2 2.8-2 5.3v36.4l2.3 1.6c0.7 0.5 1.3 0.7 1.7 0.7 0.6 0 1.1-0.4 1.9-1.2l1.5-1.6 1.1 0.9z"/><path id="path3657" d="m334.7 123.7-10.8 12.4c-4.6-3.2-11.6-7.6-16-10v-0.2c1-0.8 1.4-1.8 1.4-3.8v-43h-7l2.3-4.4h4.8v-8c0-1.8 0-3.2-1.4-4.3v-0.4c6.2-0.6 9.4-8.1 16.1-8.2l0.2 0.5c-1.6 1.1-2.7 3.5-2.7 8v11.9h10.8l-2.7 5.7c-0.7-0.6-1.6-0.9-3.1-0.9h-5v42.5l6.1 3.2c1.1 0.6 1.8 0.8 2.4 0.8 0.7 0 1.3-0.3 2.1-1.2l1.5-1.7 1 1.1z"/><path id="path3659" d="m256.8 123.7-10.8 12.4c-4.6-3.2-11.6-7.6-16-10v-0.2c1-0.8 1.4-1.8 1.4-3.8v-43h-7l2.3-4.4h4.8v-8c0-1.8 0-3.2-1.4-4.3v-0.4c6.2-0.6 9.4-8.1 16.1-8.2l0.2 0.5c-1.6 1.1-2.7 3.5-2.7 8v11.9h10.8l-2.7 5.7c-0.7-0.6-1.6-0.9-3.1-0.9h-5v42.5l6.1 3.2c1.1 0.6 1.8 0.8 2.4 0.8 0.7 0 1.3-0.3 2.1-1.2l1.5-1.7 1 1.1z"/><path id="path3661" d="m213.2 110.5c0 3.1-1.2 6.1-2 7.2h-0.4c0.1-1 0.2-2.6 0.2-3.5 0-6.6-1.5-13.1-11.2-18.1-4-2-7.3-3.9-9.8-5l-4.2 7.9c-3.5 6.7-8.1 9.7-13.2 9.7-1.7 0-3-0.7-4-1.2l2.8-5.1c0.9 1.1 2 1.8 3.5 1.8 3.8 0 7.3-2.1 9.7-6.3l4.1-7.5c-2.5-1.2-4.7-2.3-9.1-4.4-7.4-3.6-11.5-7.3-11.5-13.4 0-2 0.7-4.6 1.3-5.5h0.4c0.4 6 1.8 9.8 11.1 14.6 7.3 3.8 14.3 7.3 21.3 10.9 8.2 4.2 11 10.4 11 17.9z"/><path id="path3663" d="m541.8 124-10.6 12.1-10.5-7.3-11.4 7.3c-6.6-3-12.3-10.7-12.3-18.4 0-12.1 11.8-16.9 20.6-21.1l3.5-1.7v-10.3l-14.1-7.2-1 1c-0.4 1.4-0.5 3-0.5 5.5 0 3.2 1.6 6.5 3.5 7.4l-0.7 0.8c-4.9-0.4-8.3-5.3-9.1-10.3 4.4-2.9 11.6-8.8 15.3-12.1l21.3 9.8v0.2c-1.4 1.3-2.1 3-2.1 5.8v38.2l2 1.5c0.7 0.5 1.3 0.8 1.8 0.8 0.6 0 1.2-0.5 1.9-1.2l1.5-1.8 0.9 1zm-20.8 2.6v-30l-3.7 1.9c-5 2.6-8.2 8.2-8.2 16.3 0 6.8 4.4 11.9 8.3 14.2l3.6-2.4z"/><path id="path3665" d="m418 69.7c0 1-0.9 3.3-1.4 4l-14.5 22.9 14.5 7.2v0.2c-1.3 0.8-1.9 1.9-1.9 4.3v17.7c-6.5 1.8-15 6.4-19.7 10.1-2.2-2-4.7-3.7-8.4-3.7-5.4 0-8.7 2.4-8.7 5.9 0 4.4 4.7 6.1 7.8 6.1l-1.4 1.7c-3.8-0.5-8.3-3.1-8.3-8.7 0-4.4 2.8-7.6 4.5-10.3l12.7-19.8-16.1-8.4v-0.2c1.7-1.1 1.8-2.6 1.8-5.3v-12.2c6.8-1.8 14.9-7.2 19.5-11.4 3.7 3.2 7.1 5.4 10.6 5.4 4.6 0 7.2-2.9 7.2-5.2 0-2-0.7-2.9-1.6-3.6l1.9-1.3c0.9 0.8 1.5 1.9 1.5 4.6zm-8.2 12c-1 0.5-4.7 1.6-7.5 1.6-3.5 0-7.6-1.4-11.5-5.6l-0.1 0.1v15.2l9 4.7 10.1-16zm-6.5 45.8v-17.4l-7.7-4-12.6 19.9c2.3-1.3 5.4-2.5 10.7-2.5 2.6 0 5.8 1.2 9.5 4.1h0.1z"/><path id="path3667" d="m375 87.5-23.9 16.4v15.6l10.6 5.7c0.8 0.4 1.4 0.6 2 0.6 0.8 0 1.4-0.5 2.3-1.4l1.7-1.9 1 1-11.3 12.7c-7.8-4.9-15.4-9.2-21-12.1v-0.3c2-1 2.2-2.6 2.2-5v-35.7c7.7-2.6 16.5-8 22.2-13.2 3.3 4.5 10.2 13.2 14.2 17.6zm-12 6.3c-3.1-3.9-8.9-11.2-11.5-15.4l-0.3 0.2v23.4l11.8-8.2z"/><path id="path3669" d="m303.6 124-10.6 12.1-10.5-7.3-11.4 7.3c-6.6-3-12.3-10.7-12.3-18.4 0-12.1 11.9-16.9 20.6-21.1l3.5-1.7v-10.3l-14.1-7.2-1.1 1c-0.3 1.4-0.5 3-0.5 5.5 0 3.2 1.6 6.5 3.5 7.4l-0.7 0.8c-5-0.4-8.4-5.3-9.1-10.3 4.4-2.9 11.6-8.8 15.3-12.1l21.3 9.8v0.2c-1.4 1.3-2.1 3-2.1 5.8v38.2l2 1.5c0.7 0.5 1.3 0.8 1.8 0.8 0.6 0 1.2-0.5 1.9-1.2l1.5-1.8 1 1zm-20.7 2.6v-30l-3.7 1.9c-5 2.6-8.2 8.2-8.2 16.3 0 6.8 4.4 11.9 8.3 14.2l3.6-2.4z"/><path id="path3671" d="m224.6 101.1c0 14.6-11.1 23.2-26.7 34.9-4.3-3.8-10.2-7.9-16-7.9-10.4 0-17.9 4.2-17.9 10.2 0 5.9 5.3 9 10.4 9 3.6 0 6-1.3 7.2-1.9l-0.6 2.4c-0.9 0.4-3.1 1.3-7.2 1.3-7.9 0-13.8-4.6-13.8-13.1 0-14 12.7-19.8 25.1-19.8 10.5 0 18.5 5.7 23 9.6 4.3-4.1 7.9-9.5 7.9-16.3 0-8.4-3.8-15.8-11.1-19.4-7-3.5-13.7-6.7-20.6-10.1-8.3-4-12.6-8-12.6-17.2 0-11.3 9.1-22.2 25.5-22.2 6.8 0 13 1.9 17.1 4.7l2-3.1 1.4 0.8c-5.5 8.5-13.9 22.3-17.8 30.1 3 1.4 5.8 2.8 10.4 5.2 10.2 5.3 14.3 12.3 14.3 22.8zm-16-46.2c-3.3-4.8-9.7-7.6-15.7-7.6-10.3 0-15.1 3-15.1 8.6 0 4.4 3.7 7.7 9.3 10.6 4.9 2.5 7.7 4 11.4 5.9 2.4-4.2 7.5-13.3 10.1-17.5z"/><path id="path3673" d="m300 125.6"/></g></g></g><g id="g3675" fill="#be1e2d"><path id="path3677" d="m14.7 137.3v-63.8l5.7-0.6 1.5 10.4c2.9-8 10.2-11.7 18.8-11.7 12.4 0 14.8 6.8 16.3 12.5 2.7-7.7 10-12.5 19.7-12.5 14.3 0 17.8 8 17.8 23.9v41.8h-8v-40.6c0-11.7-1.8-17.6-11.8-17.6-11.6 0-16 6.6-16 18.5v39.7h-8v-40.6c0-11.7-1.9-17.6-11.9-17.6-11.6 0-16.2 6.6-16.2 18.5v39.7h-7.9z"/><path id="path3679" d="m102.7 72.9h8.1l15.9 52.3 15.9-52.3h8l-21.7 69.3c-2.7 8.4-6.7 14.5-15.3 14.5-3.9 0-6.8-0.4-11.1-1.3l1.6-7.3c3.2 0.7 6.3 1.1 9 1.1 4.6 0 6.8-2.1 9.6-11.6l-20-64.7z"/></g></g></svg>
