<svg id="Layer_1" data-name="Layer 1" xmlns="http://www.w3.org/2000/svg" viewBox="0 0 225.02 56.41"><defs><style>.cls-1{fill:#231f20;}</style></defs><title>Statesman</title><path class="cls-1" d="M229.26,43.87l-5.16,5.74a68.86,68.86,0,0,0-5.87-4.36V45.12c0.54-.5.61-1,0.61-2.25v-20l-5.27-3.56c-0.45.33-1,.77-1.21,0.94V42.5c0,1.5.48,2.18,1.52,2.56v0.12c-1.41,1.36-3.37,3.46-4.18,4.44-1.47-1.3-3.81-3.09-5-3.93V45.55c0.91-.56,1.21-1.38,1.21-2.87V22l-1.32-1.19a1.11,1.11,0,0,0-.68-0.31,1.25,1.25,0,0,0-.9.5l-0.91.93-0.55-.5,5.63-6.24,5.21,4,5.14-4.06a81.9,81.9,0,0,0,8.85,5.37v0.12a2.76,2.76,0,0,0-1,2.56v20l1.28,0.87a1.43,1.43,0,0,0,.79.32,1.18,1.18,0,0,0,.9-0.5l0.49-.57Z" transform="translate(-4.25)"/><path class="cls-1" d="M179,43.36l-5.7,6.31c-2.08-1.58-4.71-3.43-6.18-4.43V45.17c1-.69,1-1.19,1-2.3V23.34l-5-3.56-1.52,1.38v21.9A2.1,2.1,0,0,0,163.09,45v0.13l-4.17,4.49c-1.57-1.31-3.77-3-5.1-3.93V45.55a2.62,2.62,0,0,0,1.34-2.43v-20l-5.22-3.68-1.39,1.18V42.81A2.25,2.25,0,0,0,150.13,45v0.13l-4.23,4.49c-1.36-1.09-3.41-2.7-5-3.87V45.62a3,3,0,0,0,1.27-2.81V21.59L141,20.71a1.2,1.2,0,0,0-.73-0.25,1.32,1.32,0,0,0-.9.51l-1,1.12-0.54-.56,5.69-6.3,5.09,4.37,5.33-4.37c2.23,1.78,5.34,4.08,7.21,5.3l5.69-5.3c2.12,1.69,6.41,4.57,8.84,6.11v0.13c-1,.68-1,1.44-1,2.75v18.9l1.21,0.82a1.7,1.7,0,0,0,.91.37,1.58,1.58,0,0,0,1-.63l0.79-.81Z" transform="translate(-4.25)"/><path class="cls-1" d="M95.06,43.18l-5.63,6.43c-2.41-1.68-6-3.94-8.3-5.17V44.31a2.28,2.28,0,0,0,.73-2V20H78.22l1.21-2.31h2.48V13.48a2.5,2.5,0,0,0-.72-2.25V11.11c3.21-.32,4.89-4.19,8.37-4.25l0.12,0.25c-0.84.56-1.4,1.81-1.4,4.18v6.18h5.63l-1.4,3A2.39,2.39,0,0,0,90.89,20H88.28V42.06l3.15,1.69a2.8,2.8,0,0,0,1.27.44,1.43,1.43,0,0,0,1.09-.62l0.79-.87Z" transform="translate(-4.25)"/><path class="cls-1" d="M54.53,43.18L48.9,49.61c-2.41-1.68-6-3.94-8.29-5.17V44.31a2.3,2.3,0,0,0,.72-2V20H37.69l1.21-2.31h2.48V13.48a2.5,2.5,0,0,0-.73-2.25V11.11c3.21-.32,4.89-4.19,8.36-4.25l0.13,0.25c-0.84.56-1.4,1.81-1.4,4.18v6.18h5.63l-1.4,3A2.37,2.37,0,0,0,50.36,20H47.75V42.06l3.15,1.69a2.79,2.79,0,0,0,1.27.44,1.43,1.43,0,0,0,1.09-.62L54,42.68Z" transform="translate(-4.25)"/><path class="cls-1" d="M31.87,36.32a7.19,7.19,0,0,1-1,3.75H30.66a17.64,17.64,0,0,0,.13-1.81c0-3.42-.77-6.83-5.82-9.43-2.06-1.05-3.8-2-5.09-2.61L17.7,30.32c-1.84,3.49-4.21,5.06-6.85,5.06a4.29,4.29,0,0,1-2.06-.62l1.46-2.63a2.25,2.25,0,0,0,1.82.94,5.75,5.75,0,0,0,5-3.3l2.12-3.88c-1.29-.62-2.43-1.18-4.73-2.31-3.85-1.88-6-3.81-6-7a7.11,7.11,0,0,1,.67-2.87H9.34c0.19,3.13.94,5.11,5.75,7.61,3.8,2,7.42,3.81,11.09,5.69A9.55,9.55,0,0,1,31.87,36.32Z" transform="translate(-4.25)"/><path class="cls-1" d="M202.71,43.31l-5.51,6.3-5.45-3.81-5.94,3.81C182.39,48,179.4,44,179.4,40.06c0-6.3,6.16-8.78,10.72-11l1.82-.87V22.84l-7.33-3.75-0.54.5a11.92,11.92,0,0,0-.24,2.87,4.63,4.63,0,0,0,1.81,3.87l-0.36.44c-2.57-.18-4.34-2.75-4.74-5.36a85,85,0,0,0,7.94-6.31l11.09,5.11v0.13a3.79,3.79,0,0,0-1.09,3V43.18l1,0.76a1.78,1.78,0,0,0,.91.43,1.39,1.39,0,0,0,1-.62l0.79-.93Zm-10.78,1.37V29.08l-1.94,1c-2.6,1.35-4.24,4.25-4.24,8.49a8.75,8.75,0,0,0,4.3,7.36Z" transform="translate(-4.25)"/><path class="cls-1" d="M138.37,15.1a6.05,6.05,0,0,1-.72,2.06l-7.51,11.92,7.51,3.75v0.12a2.3,2.3,0,0,0-1,2.26v9.17a33.55,33.55,0,0,0-10.23,5.25,6.12,6.12,0,0,0-4.36-1.94c-2.83,0-4.53,1.25-4.53,3.06,0,2.31,2.42,3.19,4.06,3.19l-0.73.87a4.57,4.57,0,0,1-4.3-4.5c0-2.29,1.45-4,2.36-5.37l6.61-10.3-8.36-4.37V30.14c0.86-.59,1-1.37,1-2.75V21.09a27.68,27.68,0,0,0,10.12-5.93C130.19,16.8,132,18,133.78,18c2.37,0,3.75-1.51,3.75-2.69a2,2,0,0,0-.86-1.87l1-.68A3.09,3.09,0,0,1,138.37,15.1Zm-4.29,6.23a11.88,11.88,0,0,1-3.88.81,8.19,8.19,0,0,1-6-2.93l-0.06.06v7.93l4.67,2.43Zm-3.33,23.84v-9l-4-2.06-6.61,10.29a10.51,10.51,0,0,1,5.57-1.31,8.24,8.24,0,0,1,4.92,2.12h0.11Z" transform="translate(-4.25)"/><path class="cls-1" d="M116,24.33l-12.41,8.55V41l5.51,2.94a2.22,2.22,0,0,0,1,.31,1.71,1.71,0,0,0,1.21-.75l0.9-1,0.54,0.5-5.87,6.61c-4.06-2.55-8-4.81-10.9-6.3V43.18c1-.5,1.15-1.36,1.15-2.62V22.09a36.72,36.72,0,0,0,11.52-6.86A116.11,116.11,0,0,0,116,24.33Zm-6.24,3.31c-1.59-2-4.6-5.8-6-8l-0.17.12V31.89Z" transform="translate(-4.25)"/><path class="cls-1" d="M78.89,43.31l-5.51,6.3L67.93,45.8,62,49.61C58.55,48,55.56,44,55.56,40.06c0-6.3,6.17-8.78,10.72-11l1.82-.87V22.84l-7.33-3.75-0.56.5A12.8,12.8,0,0,0,60,22.47a4.64,4.64,0,0,0,1.82,3.87l-0.36.44c-2.58-.18-4.34-2.75-4.73-5.36a85,85,0,0,0,7.94-6.31l11.09,5.11v0.13a3.8,3.8,0,0,0-1.09,3V43.18l1,0.76a1.81,1.81,0,0,0,.91.43,1.4,1.4,0,0,0,1-.62l0.79-.93ZM68.1,44.68V29.08l-1.94,1c-2.62,1.35-4.24,4.25-4.24,8.49a8.75,8.75,0,0,0,4.29,7.36Z" transform="translate(-4.25)"/><path class="cls-1" d="M37.81,31.44C37.81,39,32,43.5,23.94,49.61c-2.24-2-5.28-4.12-8.3-4.12-5.39,0-9.33,2.18-9.33,5.3s2.75,4.68,5.4,4.68a7.76,7.76,0,0,0,3.76-1l-0.31,1.25a9.09,9.09,0,0,1-3.75.69c-4.11,0-7.15-2.37-7.15-6.8,0-7.3,6.6-10.3,13-10.3,5.47,0,9.59,3,11.94,5a11.69,11.69,0,0,0,4.12-8.49c0-4.37-2-8.23-5.75-10.11s-7.14-3.49-10.73-5.25c-4.33-2.09-6.54-4.14-6.54-8.92C10.31,5.68,15,0,23.58,0a16.49,16.49,0,0,1,8.9,2.43l1-1.62,0.73,0.44C31.37,5.66,27,12.86,25,16.91c1.55,0.75,3,1.46,5.39,2.68C35.71,22.34,37.81,26,37.81,31.44Zm-8.3-24a10.13,10.13,0,0,0-8.17-3.93C16,3.49,13.46,5.06,13.46,8c0,2.27,1.94,4,4.84,5.5l5.94,3.06C25.48,14.33,28.12,9.6,29.51,7.42Z" transform="translate(-4.25)"/><path class="cls-1" d="M77,44.18" transform="translate(-4.25)"/></svg>